<svg id="Group_82" data-name="Group 82" xmlns="http://www.w3.org/2000/svg" width="36.502" height="36.502" viewBox="0 0 36.502 36.502">
  <ellipse id="Ellipse_5" data-name="Ellipse 5" cx="17.5" cy="17" rx="17.5" ry="17" transform="translate(0.709 1.251)" fill="#fff"/>
  <g id="Group_25" data-name="Group 25">
    <path id="Path_3" data-name="Path 3" d="M20.1,7.944a2.941,2.941,0,0,0-1.687-1.685,4.912,4.912,0,0,0-1.648-.305c-.936-.043-1.217-.053-3.587-.053s-2.651.011-3.587.053a4.912,4.912,0,0,0-1.65.305A2.941,2.941,0,0,0,6.259,7.946a4.912,4.912,0,0,0-.305,1.648c-.043.936-.053,1.217-.053,3.587s.011,2.651.053,3.587a4.912,4.912,0,0,0,.305,1.65A2.941,2.941,0,0,0,7.946,20.1a4.912,4.912,0,0,0,1.648.305c.936.043,1.217.053,3.587.053s2.651-.011,3.587-.053a4.912,4.912,0,0,0,1.65-.305A2.941,2.941,0,0,0,20.1,18.417a4.912,4.912,0,0,0,.305-1.648c.043-.936.053-1.217.053-3.587s-.011-2.651-.053-3.587a4.912,4.912,0,0,0-.305-1.65Zm-6.923,9.8a4.561,4.561,0,1,1,4.561-4.561,4.561,4.561,0,0,1-4.561,4.561Zm4.74-8.235a1.066,1.066,0,1,1,1.066-1.066A1.066,1.066,0,0,1,17.921,9.507Z" transform="translate(5.069 5.069)"/>
    <circle id="Ellipse_2" data-name="Ellipse 2" cx="2.96" cy="2.96" r="2.96" transform="translate(15.291 15.291)"/>
    <path id="Path_4" data-name="Path 4" d="M18.651.4A18.251,18.251,0,1,0,36.9,18.651,18.251,18.251,0,0,0,18.651.4ZM28.1,22.571a6.977,6.977,0,0,1-.443,2.306,4.859,4.859,0,0,1-2.779,2.779,6.977,6.977,0,0,1-2.306.443c-1.015.046-1.338.057-3.92.057s-2.9-.011-3.92-.057a6.977,6.977,0,0,1-2.306-.443,4.859,4.859,0,0,1-2.779-2.779A6.977,6.977,0,0,1,9.2,22.571c-.046-1.015-.057-1.338-.057-3.92s.011-2.9.057-3.92a6.977,6.977,0,0,1,.443-2.306,4.859,4.859,0,0,1,2.779-2.779A6.977,6.977,0,0,1,14.731,9.2c1.015-.046,1.338-.057,3.92-.057s2.9.011,3.92.057a6.977,6.977,0,0,1,2.306.443,4.859,4.859,0,0,1,2.779,2.779,6.977,6.977,0,0,1,.443,2.306c.046,1.015.057,1.338.057,3.92s-.011,2.9-.057,3.92Z" transform="translate(-0.4 -0.4)"/>
  </g>
</svg>
