<svg xmlns="http://www.w3.org/2000/svg" width="33.419" height="33.419" viewBox="0 0 33.419 33.419">
  <path id="Path_4" data-name="Path 4" d="M17.11.4a16.71,16.71,0,1,0,16.71,16.71A16.71,16.71,0,0,0,17.11.4ZM25.76,20.7a6.388,6.388,0,0,1-.406,2.111,4.449,4.449,0,0,1-2.545,2.545,6.388,6.388,0,0,1-2.111.406c-.929.042-1.225.052-3.589.052s-2.66-.01-3.589-.052a6.388,6.388,0,0,1-2.111-.406A4.449,4.449,0,0,1,8.864,22.81,6.388,6.388,0,0,1,8.459,20.7c-.042-.929-.052-1.225-.052-3.589s.01-2.66.052-3.589a6.388,6.388,0,0,1,.406-2.111,4.449,4.449,0,0,1,2.545-2.545,6.388,6.388,0,0,1,2.111-.406c.929-.042,1.225-.052,3.589-.052s2.66.01,3.589.052a6.388,6.388,0,0,1,2.111.406,4.449,4.449,0,0,1,2.545,2.545,6.388,6.388,0,0,1,.406,2.111c.042.929.052,1.225.052,3.589s-.01,2.66-.052,3.589Z" transform="translate(-0.4 -0.4)"/>
</svg>
