<svg xmlns="http://www.w3.org/2000/svg" width="216" height="180.93" viewBox="0 0 216 180.93">
  <g id="Group_131" data-name="Group 131" transform="translate(-67 -108)">
    <g id="Group_111" data-name="Group 111">
      <g id="Lag_1" data-name="Lag 1" transform="translate(69 108)">
        <path id="Path_8" data-name="Path 8" d="M171.424,103.077c-5.758,0-11.589-1.038-11.589-3V63.864c-1.624.254-3.263.451-4.923.581.207.737.374,1.349.488,1.795.156.628.311,1.235.467,1.826a30.108,30.108,0,0,1,1.318,7.429l1.183,24.589c0,2.371-9.727,2.993-14.873,2.993a51.957,51.957,0,0,1-12.284-1.2.4.4,0,0,1-.285-.394s.757-20.029.892-23.661a44.048,44.048,0,0,1,1.224-9.073c.311-.991,1.655-5.94,1.67-5.992a.384.384,0,0,1,.441-.28A77.621,77.621,0,0,0,153.9,63.724c-.747-2.594-1.842-6.225-2.843-9.514-1.1-3.631-2.148-7.1-2.474-8.331-.161-.612-.348-1.266-.545-1.94a29.022,29.022,0,0,1-1.556-8.062V31.618c0-4.337-.026-10.282,0-13.036a1.5,1.5,0,0,1,.763-1.556,1.971,1.971,0,0,0,.825-1.556v-.135c0-.783-.052-1.593-.078-1.93a.96.96,0,0,0-.965-.711h-7.081a.96.96,0,0,0-.965.711c-.026.337-.052,1.146-.078,1.93v.135a1.971,1.971,0,0,0,.825,1.556,1.5,1.5,0,0,1,.763,1.556c.036,2.755,0,8.7,0,13.036v4.259a28.29,28.29,0,0,1-1.556,8.062c-.2.674-.384,1.328-.55,1.94-.322,1.229-1.364,4.669-2.469,8.331-1.447,4.788-3.087,10.214-3.585,12.206-.161.633-.316,1.24-.472,1.826a29.715,29.715,0,0,0-1.292,7.263c0,2.122-1.006,21.342-1.038,22.156a.394.394,0,0,1-.389.373h-2.127a.389.389,0,0,1-.389-.389V36.613a6.105,6.105,0,0,0-4.963-6,.394.394,0,0,1-.323-.384V5.716a.389.389,0,0,1,.389-.389.593.593,0,0,0,.659-.576c0-.524.041-1.629.041-2.459V1.156c0-.161-.285-.368-.726-.368h-6.889c-.441,0-.726.145-.726.368s0,.6.026,1.136c0,.82.042,1.862.042,2.449s.519.571.664.576a.389.389,0,0,1,.384.389V30.232a.394.394,0,0,1-.316.384,6.1,6.1,0,0,0-4.975,6V55.771l.436.135c4.788,1.473,9.737,3,14.613,4.285a.394.394,0,0,1,.29.379v41.594a.394.394,0,0,1-.316.379,36.51,36.51,0,0,1-6.661.519c-.939,0-9.141-.057-9.141-1.925V56.342l-2.459-.752a27.981,27.981,0,0,1,1.235,9.078c-.27,4.026-.519,12.653-.69,17.8-.042,1.281-.073,2.324-.093,2.983-.031.83-.057,1.494-.083,2.075a47.517,47.517,0,0,0-.031,4.752,26.266,26.266,0,0,1-1.038,9.1c-.519,1.67-11.122,1.691-11.573,1.691h-.721a56.582,56.582,0,0,1-9.12-.612.4.4,0,0,1-.311-.3c-.031-.135-.763-3.253-.9-4.036a12.777,12.777,0,0,1,0-4.508v-.1a21.824,21.824,0,0,0,.119-3.294V88.582c0-1.831-.15-16.035-.747-21.42a29.709,29.709,0,0,1,.814-10.894c.218-.763,2.075-6.37,2.163-6.609a.4.4,0,0,1,.446-.259,194.421,194.421,0,0,1,19.376,5.037c-.337-1.1-.68-2.075-.965-2.947l-.213-.643c-.4-1.188-.726-2.236-1.074-3.346-.519-1.7-1.089-3.46-1.956-5.909a61.213,61.213,0,0,1-3.4-22.182v-.083a2.635,2.635,0,0,1,.467-1.769,3.019,3.019,0,0,0,.706-1.707c0-.239.026-.519.042-.825.036-.7.078-1.494.057-1.842-.057-.939-.519-.939-.69-.939a.389.389,0,0,1-.384-.327,22.269,22.269,0,0,1,0-2.355v-1.1a1.619,1.619,0,0,0-1.437-1.437H91.39a1.613,1.613,0,0,0-1.437,1.437v1.1a22.175,22.175,0,0,1,0,2.35.384.384,0,0,1-.384.327c-.156,0-.628,0-.685.939,0,.348,0,1.131.057,1.826,0,.306.031.6.042.84a2.946,2.946,0,0,0,.69,1.722,2.661,2.661,0,0,1,.467,1.769v.083a61.213,61.213,0,0,1-3.4,22.182c-.872,2.449-1.421,4.2-1.956,5.9-.348,1.11-.674,2.163-1.079,3.351l-.208.612c-1.084,3.175-2.895,8.482-2.594,13.14.27,4.026.519,12.642.7,17.788.036,1.3.073,2.355.093,3.024.031.825.057,1.489.083,2.075.073,1.743.114,2.7.031,4.819a29.138,29.138,0,0,0,.2,5.26.4.4,0,0,1-.093.311.394.394,0,0,1-.29.135H78.068a.389.389,0,0,1-.275-.114.379.379,0,0,1-.114-.275v-55.9a7.88,7.88,0,0,0-6.09-7.667.389.389,0,0,1-.3-.379V16.361c0-1.292.057-1.53.519-1.935a3.2,3.2,0,0,0,.259-.265c.265-.3.41-.467.389-1.484V8.533a1.87,1.87,0,0,0,0-.42c-.031-.047-.109-.1-.581-.1H62.811c-.477,0-.576.088-.586.1a1.038,1.038,0,0,0,0,.42v4.145c0,1.038.125,1.183.389,1.484a3.137,3.137,0,0,0,.265.265c.436.4.519.638.519,1.935V33.693a.394.394,0,0,1-.306.379,7.87,7.87,0,0,0-6.142,7.662v6.889A74.353,74.353,0,0,1,76.2,47.953a.384.384,0,0,1,.353.389v53.774a.394.394,0,0,1-.322.384,57.517,57.517,0,0,1-8.871.576c-1.868,0-11.184-.083-11.184-1.743V49.551c-.944.171-1.888.363-2.822.576a35.136,35.136,0,0,1,.892,7.361v43.493c0,2.039-11.2,2.075-12.45,2.075a55.45,55.45,0,0,1-10.152-.742.389.389,0,0,1-.306-.379V58.313a.379.379,0,0,1,.2-.337,79.054,79.054,0,0,1,20.859-8.43,129.4,129.4,0,0,0-3.943-12.865,51.528,51.528,0,0,1-3.216-16.626V12.46a.389.389,0,0,1,.415-.415c.1,0,1.038-.073,1.038-1.639,0-.783,0-1.406.026-1.935a16.15,16.15,0,0,0,0-1.982A1.437,1.437,0,0,0,45.158,5.3H38.31a1.437,1.437,0,0,0-1.556,1.193,16.022,16.022,0,0,0,0,1.982c0,.519,0,1.152,0,1.935,0,1.619,1.038,1.639,1.038,1.639a.389.389,0,0,1,.389.389v7.621a51.829,51.829,0,0,1-3.206,16.626c-2.723,7.864-4.98,14.857-4.98,20.807V97.635a.394.394,0,0,1-.389.389H.389a.389.389,0,0,1,0-.778H29.253V57.488c0-6.069,2.277-13.13,5.027-21.062a51.087,51.087,0,0,0,3.159-16.372v-7.3a2.144,2.144,0,0,1-1.447-2.35V8.486a16.517,16.517,0,0,1,.031-2.075,2.2,2.2,0,0,1,2.314-1.893h6.8a2.2,2.2,0,0,1,2.319,1.893,16.6,16.6,0,0,1,.026,2.075c0,.519-.026,1.141-.026,1.919,0,1.686-.908,2.2-1.447,2.35v7.3a51.19,51.19,0,0,0,3.164,16.372A131.017,131.017,0,0,1,53.131,49.4q1.494-.342,2.993-.612V41.749a8.648,8.648,0,0,1,6.448-8.336V16.361c0-1.131-.036-1.167-.249-1.364a3.113,3.113,0,0,1-.316-.322,2.431,2.431,0,0,1-.586-2.013V8.59a1.245,1.245,0,0,1,.218-1.006A1.5,1.5,0,0,1,62.8,7.236h9.016a1.494,1.494,0,0,1,1.152.348,1.229,1.229,0,0,1,.223,1.006v4.072a2.5,2.5,0,0,1-.581,2.013,3.112,3.112,0,0,1-.316.322c-.213.2-.249.233-.249,1.364V33.387a8.648,8.648,0,0,1,6.448,8.336c.031,2.184,0,50.652,0,55.507h2.723a30.94,30.94,0,0,1-.15-4.959,47.517,47.517,0,0,0-.031-4.752c-.026-.586-.052-1.25-.083-2.075,0-.669-.057-1.727-.093-3.024-.161-5.146-.425-13.747-.7-17.762-.316-4.814,1.525-10.214,2.625-13.441l.208-.612c.4-1.183.726-2.225,1.074-3.336.519-1.707,1.089-3.47,1.966-5.929a60.462,60.462,0,0,0,3.351-21.9v-.088a1.982,1.982,0,0,0-.285-1.287,3.787,3.787,0,0,1-.872-2.194c0-.239-.026-.519-.042-.83-.041-.747-.083-1.525-.057-1.914A1.6,1.6,0,0,1,89.221,11.5c0-.457,0-1.307-.031-1.919V8.455a2.371,2.371,0,0,1,2.2-2.22h5.3A2.376,2.376,0,0,1,98.906,8.45c0,.244,0,.659,0,1.121,0,.612-.036,1.468-.031,1.925a1.6,1.6,0,0,1,1.1,1.629c0,.389,0,1.172-.057,1.93,0,.3-.031.581-.042.814A3.782,3.782,0,0,1,99,18.062a2.075,2.075,0,0,0-.285,1.287v.088a60.424,60.424,0,0,0,3.351,21.9c.877,2.464,1.427,4.228,1.966,5.935.348,1.1.674,2.153,1.069,3.33l.213.612c.332.98.737,2.163,1.126,3.47l2.718.835v-18.9a6.884,6.884,0,0,1,5.291-6.7V6.053a1.3,1.3,0,0,1-1.038-1.3c0-.581-.026-1.613-.042-2.433,0-.519-.026-.986-.026-1.152,0-.571.467-1.146,1.5-1.146h6.915c1.038,0,1.5.576,1.5,1.146V2.318c0,.82-.047,1.852-.047,2.433a1.3,1.3,0,0,1-1.037,1.3V29.916a6.889,6.889,0,0,1,5.3,6.7V97.246h1.364c.145-2.739,1.038-19.811,1.038-21.752a30.225,30.225,0,0,1,1.318-7.439c.156-.586.311-1.188.467-1.816.519-2.013,2.148-7.449,3.6-12.248,1.1-3.631,2.142-7.086,2.459-8.3.166-.623.358-1.276.555-1.961a28.462,28.462,0,0,0,1.5-7.844V31.628c0-4.337.031-10.277,0-13.026,0-.633-.1-.742-.332-.856a2.718,2.718,0,0,1-1.255-2.277v-.135c.026-.83.052-1.608.078-1.966a1.717,1.717,0,0,1,1.67-1.427h7.1a1.738,1.738,0,0,1,1.743,1.427c.026.358.052,1.136.078,1.966v.135a2.718,2.718,0,0,1-1.255,2.277c-.228.114-.322.223-.332.856-.036,2.749,0,8.689,0,13.026v4.259a28.652,28.652,0,0,0,1.5,7.844c.2.685.394,1.338.56,1.961.316,1.214,1.359,4.669,2.459,8.3,1.038,3.387,2.148,7.091,2.895,9.685q2.594-.192,5.141-.607V42.579a11.413,11.413,0,0,1,4.928-9.369l.057-.036c2.2-1.484,2.972-2.127,3.03-4.669.036-1.676.192-14.608.2-15.615a.384.384,0,0,0-.327-.259c-.861-.067-.934-1.333-.923-1.878l.213-5.188a.789.789,0,0,1,.788-.721c2.423-.13,7.133-.057,9.032,0a.846.846,0,0,1,.825.763l.176,5.924a1.089,1.089,0,0,1-.778,1.038l-.192.042a.83.83,0,0,0-.244.062c.026.145.228,14.126.27,15.858.052,2.526.82,3.17,3.03,4.669l.047.031a11.413,11.413,0,0,1,4.933,9.395v54.62h25.938a.389.389,0,0,1,0,.778H184.507a.389.389,0,0,1-.389-.389V42.579a10.65,10.65,0,0,0-4.591-8.751l-.047-.031c-2.231-1.5-3.31-2.35-3.372-5.281-.042-1.738-.244-15.718-.244-15.858-.052-.674.607-.8.856-.846l.14-.026a.348.348,0,0,0,.192-.259L176.9,5.649c0-.042-.047-.042-.067-.042-1.893-.057-6.573-.13-8.969,0a.114.114,0,0,0-.062,0l-.239,5.167a1.79,1.79,0,0,0,.213,1.079,1.157,1.157,0,0,1,1.038.887.285.285,0,0,1,0,.093c0,.14-.166,13.944-.2,15.682-.067,2.931-1.141,3.782-3.377,5.281l-.047.036a10.635,10.635,0,0,0-4.586,8.746V62.94a65.664,65.664,0,0,0,21.269-7.823l.55-.311a.389.389,0,0,1,.581.337v44.935C183.018,102.044,177.187,103.077,171.424,103.077ZM160.613,63.734v36.344c0,.9,4.212,2.22,10.811,2.22s10.816-1.318,10.816-2.22V55.812a66.5,66.5,0,0,1-21.627,7.921Zm-28.9,37.47a52.911,52.911,0,0,0,11.781,1.095c9.255,0,14.095-1.432,14.095-2.2l-1.183-24.584a29.8,29.8,0,0,0-1.292-7.263c-.156-.591-.311-1.2-.472-1.831-.114-.472-.3-1.131-.519-1.925a77.492,77.492,0,0,1-18.758-1.2c-.311,1.157-1.312,4.819-1.582,5.68a46.388,46.388,0,0,0-1.188,8.866C132.47,81.221,131.811,98.657,131.713,101.2ZM109.925,56.591v44.577c.218.384,3.211,1.146,8.362,1.146a36.776,36.776,0,0,0,6.2-.462V60.87c-4.8-1.271-9.654-2.77-14.354-4.218ZM84.983,101.723a56.442,56.442,0,0,0,8.71.565h.721c6.37,0,10.453-.7,10.847-1.183a25.513,25.513,0,0,0,.986-8.819c-.083-2.117-.042-3.076.031-4.819,0-.581.052-1.245.083-2.075,0-.659.052-1.7.093-2.978.156-5.162.425-13.794.69-17.835a28.049,28.049,0,0,0-1.344-9.3,198.48,198.48,0,0,0-19.459-5.1c-.41,1.235-1.862,5.608-2.049,6.225A29.424,29.424,0,0,0,83.5,67.012c.6,5.421.752,19.671.752,21.508v1.624a22.6,22.6,0,0,1-.125,3.4v.1a11.978,11.978,0,0,0,0,4.28c.114.7.654,3.035.835,3.808Zm-28.049-.477c.519.446,4.342,1.038,10.406,1.038a58.79,58.79,0,0,0,8.414-.519V48.7a73.606,73.606,0,0,0-18.826.716c-.026,15.724-.01,49.962-.01,51.845Zm-24.823.358a56.8,56.8,0,0,0,9.633.685c6.92,0,11.273-.794,11.7-1.354V57.488a34.186,34.186,0,0,0-.887-7.159A78.333,78.333,0,0,0,32.1,58.567Z" transform="translate(0 -0.02)" fill="#fff"/>
      </g>
      <text id="Hvor_Vinelskere_Mødes" data-name="Hvor Vinelskere Mødes" transform="translate(151 283.93)" fill="#fff" font-size="20" font-family="LeHavreRoundedThin, Le Havre Rounded"><tspan x="0" y="0">H</tspan><tspan y="0" letter-spacing="-0.01em">v</tspan><tspan y="0">or </tspan><tspan y="0" letter-spacing="-0.06em">V</tspan><tspan y="0">ine</tspan><tspan y="0" letter-spacing="0.01em">l</tspan><tspan y="0">s</tspan><tspan y="0" letter-spacing="-0.01em">k</tspan><tspan y="0">e</tspan><tspan y="0" letter-spacing="-0.02em">r</tspan><tspan y="0">e Mødes</tspan></text>
    </g>
    <text id="MARITTIMA" transform="translate(67 260)" fill="#f5f5f5" font-size="54" font-family="LeHavre-Thi, Le Havre" letter-spacing="0.02em"><tspan x="0" y="0">MARITTIMA</tspan></text>
  </g>
</svg>
