<svg xmlns="http://www.w3.org/2000/svg" width="109.019" height="86.725" viewBox="0 0 109.019 86.725">
  <g id="Group_116" data-name="Group 116" transform="translate(-610.75 -15.275)">
    <g id="Lag_1" data-name="Lag 1" transform="translate(611 15.505)">
      <path id="Path_1" data-name="Path 1" d="M88.072,52.967c-2.958,0-5.954-.533-5.954-1.54V32.821c-.834.131-1.676.232-2.529.3.107.378.192.693.251.922.08.322.16.634.24.938a15.468,15.468,0,0,1,.677,3.817l.608,12.633c0,1.218-5,1.538-7.641,1.538a26.694,26.694,0,0,1-6.311-.616.205.205,0,0,1-.147-.2s.389-10.29.458-12.156a22.632,22.632,0,0,1,.629-4.661c.16-.509.85-3.052.858-3.078a.2.2,0,0,1,.227-.144,39.879,39.879,0,0,0,9.632.64c-.384-1.333-.946-3.2-1.461-4.888-.568-1.866-1.1-3.649-1.271-4.28-.083-.314-.179-.65-.28-1a14.911,14.911,0,0,1-.8-4.142V16.254c0-2.228-.013-5.282,0-6.7a.771.771,0,0,1,.392-.8,1.013,1.013,0,0,0,.424-.8V7.888c0-.4-.027-.818-.04-.991a.493.493,0,0,0-.5-.365H71.9a.493.493,0,0,0-.5.365c-.013.173-.027.589-.04.991v.069a1.013,1.013,0,0,0,.424.8.768.768,0,0,1,.392.8c.019,1.415,0,4.47,0,6.7v2.188a14.534,14.534,0,0,1-.8,4.142c-.1.346-.2.682-.282,1-.165.632-.7,2.4-1.269,4.28-.744,2.46-1.586,5.248-1.842,6.271-.083.325-.163.637-.243.938a15.267,15.267,0,0,0-.664,3.731c0,1.09-.517,10.965-.533,11.383a.2.2,0,0,1-.2.192H65.255a.2.2,0,0,1-.2-.2V18.82a3.137,3.137,0,0,0-2.55-3.081.2.2,0,0,1-.166-.2V2.946a.2.2,0,0,1,.2-.2.3.3,0,0,0,.338-.3c0-.269.021-.837.021-1.263V.6c0-.083-.147-.189-.373-.189H58.986c-.227,0-.373.075-.373.189s0,.309.013.584c0,.421.021.957.021,1.258s.267.293.341.3a.2.2,0,0,1,.2.2v12.6a.2.2,0,0,1-.163.2,3.134,3.134,0,0,0-2.556,3.081v9.843l.224.069c2.46.757,5,1.543,7.508,2.2a.2.2,0,0,1,.149.195V52.5a.2.2,0,0,1-.163.195,18.758,18.758,0,0,1-3.422.267c-.482,0-4.7-.029-4.7-.989V28.956L54.8,28.57a14.375,14.375,0,0,1,.634,4.664c-.139,2.068-.267,6.5-.354,9.147-.021.658-.037,1.194-.048,1.532-.016.426-.029.768-.043,1.066q-.069,1.22-.016,2.441a13.494,13.494,0,0,1-.533,4.675c-.267.858-5.714.869-5.946.869h-.37a29.069,29.069,0,0,1-4.685-.314.208.208,0,0,1-.16-.152c-.016-.069-.392-1.671-.464-2.074a6.565,6.565,0,0,1,0-2.316v-.053a11.213,11.213,0,0,0,.061-1.692V45.52c0-.941-.077-8.238-.384-11a15.264,15.264,0,0,1,.418-5.6c.112-.392,1.066-3.273,1.111-3.4a.205.205,0,0,1,.229-.133,99.888,99.888,0,0,1,9.955,2.588c-.173-.565-.349-1.066-.5-1.514l-.109-.33c-.205-.61-.373-1.149-.552-1.719-.267-.874-.56-1.778-1-3.036A31.449,31.449,0,0,1,50.3,9.983V9.94a1.354,1.354,0,0,1,.24-.909,1.551,1.551,0,0,0,.362-.877c0-.123.013-.267.021-.424.019-.36.04-.768.029-.946C50.927,6.3,50.69,6.3,50.6,6.3a.2.2,0,0,1-.2-.168,11.44,11.44,0,0,1,0-1.21V4.359a.832.832,0,0,0-.738-.738H46.953a.829.829,0,0,0-.738.738v.568a11.389,11.389,0,0,1,0,1.207.2.2,0,0,1-.2.168c-.08,0-.322,0-.352.482,0,.179,0,.581.029.938,0,.157.016.309.021.432a1.514,1.514,0,0,0,.354.885,1.367,1.367,0,0,1,.24.909v.043a31.45,31.45,0,0,1-1.746,11.4c-.448,1.258-.73,2.159-1,3.033-.179.57-.346,1.111-.554,1.722l-.107.314a18.74,18.74,0,0,0-1.333,6.751c.139,2.068.267,6.5.357,9.139.019.669.037,1.21.048,1.554.016.424.029.765.043,1.066.037.9.059,1.389.016,2.476a14.97,14.97,0,0,0,.1,2.7.205.205,0,0,1-.048.16.2.2,0,0,1-.149.069H40.109a.2.2,0,0,1-.141-.059.2.2,0,0,1-.059-.141V21.454a4.048,4.048,0,0,0-3.129-3.939.2.2,0,0,1-.155-.195v-8.9c0-.664.029-.786.267-.994a1.646,1.646,0,0,0,.133-.136c.136-.155.211-.24.2-.762V4.394a.961.961,0,0,0,0-.216c-.016-.024-.056-.051-.3-.051H32.27c-.245,0-.3.045-.3.051a.533.533,0,0,0,0,.216V6.523c0,.533.064.608.2.762a1.611,1.611,0,0,0,.136.136c.224.208.267.328.267.994v8.9a.2.2,0,0,1-.157.195,4.043,4.043,0,0,0-3.156,3.937V24.99a38.2,38.2,0,0,1,9.891-.344.2.2,0,0,1,.181.2V52.474a.2.2,0,0,1-.165.2,29.55,29.55,0,0,1-4.557.3c-.959,0-5.746-.043-5.746-.9v-26.6c-.485.088-.97.187-1.45.3a18.052,18.052,0,0,1,.458,3.782V51.89c0,1.047-5.754,1.066-6.4,1.066a28.489,28.489,0,0,1-5.216-.381.2.2,0,0,1-.157-.195V29.969a.2.2,0,0,1,.1-.173,40.615,40.615,0,0,1,10.717-4.331,66.479,66.479,0,0,0-2.026-6.61,26.473,26.473,0,0,1-1.652-8.542v-3.9a.2.2,0,0,1,.213-.213c.053,0,.533-.037.533-.842,0-.4,0-.722.013-.994a8.3,8.3,0,0,0,0-1.018.738.738,0,0,0-.8-.613H19.683a.738.738,0,0,0-.8.613,8.231,8.231,0,0,0,0,1.018c0,.267,0,.592,0,.994,0,.832.533.842.533.842a.2.2,0,0,1,.2.2v3.915a26.628,26.628,0,0,1-1.647,8.542c-1.4,4.04-2.559,7.633-2.559,10.69V50.171a.2.2,0,0,1-.2.2H.2a.2.2,0,0,1,0-.4H15.029V29.545c0-3.118,1.17-6.746,2.583-10.821a26.247,26.247,0,0,0,1.623-8.411V6.563a1.1,1.1,0,0,1-.744-1.207V4.37A8.486,8.486,0,0,1,18.507,3.3,1.13,1.13,0,0,1,19.7,2.331h3.491a1.133,1.133,0,0,1,1.191.973,8.529,8.529,0,0,1,.013,1.066c0,.267-.013.586-.013.986,0,.866-.466,1.13-.744,1.207v3.75a26.3,26.3,0,0,0,1.626,8.411A67.314,67.314,0,0,1,27.3,25.387q.768-.176,1.538-.314V21.459a4.443,4.443,0,0,1,3.313-4.283V8.415c0-.581-.019-.6-.128-.7a1.6,1.6,0,0,1-.163-.165,1.249,1.249,0,0,1-.3-1.034V4.423a.64.64,0,0,1,.112-.517.773.773,0,0,1,.594-.179h4.632a.768.768,0,0,1,.592.179.632.632,0,0,1,.115.517V6.515a1.286,1.286,0,0,1-.3,1.034,1.6,1.6,0,0,1-.163.165c-.109.1-.128.12-.128.7v8.747a4.443,4.443,0,0,1,3.313,4.283c.016,1.122,0,26.023,0,28.518h1.4a15.9,15.9,0,0,1-.077-2.548,24.411,24.411,0,0,0-.016-2.441c-.013-.3-.027-.642-.043-1.066,0-.344-.029-.888-.048-1.554-.083-2.644-.219-7.063-.357-9.126a19.029,19.029,0,0,1,1.349-6.906l.107-.314c.205-.608.373-1.143.552-1.714.267-.877.56-1.783,1.01-3.046A31.063,31.063,0,0,0,45.922,10V9.953a1.018,1.018,0,0,0-.147-.661,1.946,1.946,0,0,1-.448-1.127c0-.123-.013-.267-.021-.426-.021-.384-.043-.784-.029-.983a.822.822,0,0,1,.562-.837c0-.235,0-.672-.016-.986V4.354a1.218,1.218,0,0,1,1.13-1.141h2.724a1.221,1.221,0,0,1,1.138,1.138c0,.125,0,.338,0,.576,0,.314-.019.754-.016.989a.824.824,0,0,1,.565.837c0,.2,0,.6-.029.991,0,.152-.016.3-.021.418a1.943,1.943,0,0,1-.45,1.127,1.066,1.066,0,0,0-.147.661V10a31.044,31.044,0,0,0,1.722,11.25c.45,1.266.733,2.172,1.01,3.049.179.568.346,1.106.549,1.711l.109.314c.171.5.378,1.111.578,1.783l1.4.429V18.82A3.537,3.537,0,0,1,58.8,15.38V3.12a.669.669,0,0,1-.533-.669c0-.3-.013-.829-.021-1.25,0-.267-.013-.506-.013-.592,0-.293.24-.589.773-.589h3.553c.533,0,.773.3.773.589V1.2c0,.421-.024.951-.024,1.25a.666.666,0,0,1-.533.669V15.38a3.539,3.539,0,0,1,2.721,3.441V49.971h.7c.075-1.407.533-10.178.533-11.175a15.528,15.528,0,0,1,.677-3.822c.08-.3.16-.61.24-.933.267-1.034,1.1-3.827,1.85-6.293.565-1.866,1.1-3.641,1.263-4.264.085-.32.184-.656.285-1.007a14.624,14.624,0,0,0,.773-4.03V16.259c0-2.228.016-5.28,0-6.692,0-.325-.053-.381-.171-.44A1.4,1.4,0,0,1,71,7.957V7.888c.013-.426.027-.826.04-1.01a.882.882,0,0,1,.858-.733h3.646a.893.893,0,0,1,.9.733c.013.184.027.584.04,1.01v.069a1.4,1.4,0,0,1-.645,1.17c-.117.059-.165.115-.171.44-.019,1.413,0,4.464,0,6.692v2.188a14.721,14.721,0,0,0,.77,4.03c.1.352.2.688.288,1.007.163.624.7,2.4,1.263,4.264.533,1.74,1.1,3.643,1.487,4.976q1.333-.1,2.641-.312V21.885a5.863,5.863,0,0,1,2.532-4.813l.029-.019c1.133-.762,1.527-1.093,1.556-2.4.019-.861.1-7.505.1-8.022a.2.2,0,0,0-.168-.133c-.442-.035-.48-.685-.474-.965L85.8,2.869a.405.405,0,0,1,.405-.37c1.245-.067,3.665-.029,4.64,0a.434.434,0,0,1,.424.392l.091,3.044a.56.56,0,0,1-.4.533l-.1.021a.426.426,0,0,0-.125.032c.013.075.117,7.257.139,8.148.027,1.3.421,1.628,1.556,2.4l.024.016a5.863,5.863,0,0,1,2.535,4.827V49.971h13.326a.2.2,0,0,1,0,.4H94.793a.2.2,0,0,1-.2-.2V21.885a5.472,5.472,0,0,0-2.359-4.5l-.024-.016c-1.146-.77-1.7-1.207-1.732-2.713-.021-.893-.125-8.076-.125-8.148-.027-.346.312-.41.44-.434l.072-.013a.179.179,0,0,0,.1-.133l-.08-3.02c0-.021-.024-.021-.035-.021-.973-.029-3.377-.067-4.608,0a.059.059,0,0,0-.032,0l-.123,2.655A.92.92,0,0,0,86.2,6.1a.594.594,0,0,1,.533.456.146.146,0,0,1,0,.048c0,.072-.085,7.164-.1,8.057-.035,1.506-.586,1.943-1.735,2.713l-.024.019a5.464,5.464,0,0,0-2.356,4.494V32.346a33.736,33.736,0,0,0,10.927-4.019l.283-.16a.2.2,0,0,1,.3.173V51.426C94.028,52.437,91.033,52.967,88.072,52.967ZM82.517,32.754V51.426c0,.464,2.164,1.141,5.554,1.141s5.557-.677,5.557-1.141V28.684a34.165,34.165,0,0,1-11.111,4.07ZM67.67,52a27.184,27.184,0,0,0,6.053.562c4.755,0,7.241-.736,7.241-1.13l-.608-12.63a15.311,15.311,0,0,0-.664-3.731c-.08-.3-.16-.616-.243-.941-.059-.243-.152-.581-.267-.989a39.813,39.813,0,0,1-9.637-.616c-.16.594-.674,2.476-.813,2.918A23.834,23.834,0,0,0,68.123,40C68.059,41.738,67.72,50.7,67.67,52ZM56.476,29.084v22.9c.112.2,1.65.589,4.3.589a18.9,18.9,0,0,0,3.185-.237V31.283c-2.465-.653-4.96-1.423-7.375-2.167ZM43.661,52.271a29,29,0,0,0,4.475.291h.37c3.273,0,5.37-.36,5.573-.608a13.108,13.108,0,0,0,.506-4.531c-.043-1.087-.021-1.58.016-2.476,0-.3.027-.64.043-1.066,0-.338.027-.874.048-1.53.08-2.652.219-7.087.354-9.163a14.411,14.411,0,0,0-.69-4.776,101.972,101.972,0,0,0-10-2.623c-.211.634-.957,2.881-1.053,3.2a15.117,15.117,0,0,0-.405,5.45c.309,2.785.386,10.106.386,11.05v.834a11.61,11.61,0,0,1-.064,1.746v.053a6.154,6.154,0,0,0,0,2.2c.059.36.336,1.559.429,1.956Zm-14.411-.245c.267.229,2.231.533,5.346.533a30.2,30.2,0,0,0,4.323-.267V25.028a37.816,37.816,0,0,0-9.672.368c-.013,8.078-.005,25.669-.005,26.636ZM16.5,52.21a29.185,29.185,0,0,0,4.949.352c3.555,0,5.791-.408,6.01-.7V29.545A17.564,17.564,0,0,0,27,25.867,40.245,40.245,0,0,0,16.49,30.1Z" transform="translate(0 0)" fill="#fff" stroke="#fff" stroke-width="0.5"/>
    </g>
    <g id="Lag_2" data-name="Lag 2" transform="translate(401.84 -389.766)">
      <text id="MARITTIMA" transform="translate(212.703 485.766)" fill="#f5f5f5" font-size="20" font-family="FuturaPT-Medium, Futura PT" font-weight="500" letter-spacing="0.02em"><tspan x="0" y="0">MARITTIMA</tspan></text>
    </g>
  </g>
</svg>
