<svg id="logosortudenslogan_1_" data-name="logosortudenslogan (1)" xmlns="http://www.w3.org/2000/svg" width="284.868" height="237.418" viewBox="0 0 284.868 237.418">
  <path id="Path_11" data-name="Path 11" d="M231.192,139c-7.769,0-15.634-1.387-15.634-4.044V86.116q-3.284.521-6.637.784c.281.99.506,1.817.655,2.418.214.849.426,1.668.632,2.462.954,3.672,1.777,6.842,1.777,10.021l1.594,33.161c0,3.2-13.118,4.036-20.056,4.036-6.714,0-12.907-.6-16.567-1.618a.523.523,0,0,1-.382-.525s1.019-27.014,1.2-31.9a59.682,59.682,0,0,1,1.645-12.233c.422-1.336,2.235-8.015,2.254-8.082a.527.527,0,0,1,.6-.382,104.676,104.676,0,0,0,25.281,1.679c-1-3.473-2.481-8.359-3.834-12.832-1.49-4.926-2.9-9.576-3.332-11.235-.218-.826-.475-1.7-.742-2.616a39.287,39.287,0,0,1-2.065-10.878c0-1.353,0-3.4-.013-5.744-.017-5.851-.04-13.863.013-17.582a2,2,0,0,1,1.023-2.078,2.653,2.653,0,0,0,1.116-2.1V20.68c-.036-1.055-.073-2.147-.107-2.6a1.294,1.294,0,0,0-1.3-.954h-9.573a1.3,1.3,0,0,0-1.3.954c-.034.456-.071,1.548-.107,2.6v.191a2.661,2.661,0,0,0,1.116,2.1,2.006,2.006,0,0,1,1.023,2.08c.053,3.718.031,11.729.013,17.58,0,2.349-.013,4.389-.013,5.744,0,3.817-1.1,7.559-2.065,10.878-.267.914-.525,1.79-.742,2.618-.435,1.657-1.842,6.3-3.332,11.233-1.952,6.456-4.164,13.775-4.838,16.464-.212.851-.426,1.67-.632,2.462-.935,3.607-1.744,6.72-1.744,9.767,0,2.863-1.359,28.783-1.416,29.884a.525.525,0,0,1-.525.5h-2.863a.529.529,0,0,1-.525-.525V49.365a8.225,8.225,0,0,0-6.708-8.088.525.525,0,0,1-.429-.515V7.679a.525.525,0,0,1,.525-.525.8.8,0,0,0,.887-.777c0-.788.034-2.191.061-3.3.017-.718.031-1.311.031-1.527,0-.3-.382-.5-.979-.5h-9.34c-.6,0-.979.191-.979.5,0,.218.013.811.031,1.527.027,1.111.061,2.513.061,3.3a.8.8,0,0,0,.891.777.531.531,0,0,1,.521.525V40.762a.523.523,0,0,1-.427.515,8.225,8.225,0,0,0-6.708,8.088V75.192l.588.181c6.456,1.992,13.134,4.052,19.706,5.783a.525.525,0,0,1,.391.525v56.085a.525.525,0,0,1-.42.515,49.208,49.208,0,0,1-8.989.718c-1.261,0-12.325-.073-12.325-2.6V75.974l-3.317-1.019A37.733,37.733,0,0,1,145.53,87.2c-.363,5.431-.719,17.067-.933,24.017-.053,1.718-.1,3.128-.128,4.019-.038,1.116-.076,2.017-.111,2.8-.1,2.321-.153,3.6-.04,6.408a35.212,35.212,0,0,1-1.4,12.275c-.712,2.252-15,2.277-15.605,2.277h-.975a75.653,75.653,0,0,1-12.275-.834.527.527,0,0,1-.418-.4c-.042-.179-1.029-4.389-1.221-5.443a17.317,17.317,0,0,1-.021-6.082l.017-.136a29.771,29.771,0,0,0,.162-4.449c-.011-.628-.021-1.336-.021-2.206,0-2.471-.2-21.626-1.008-28.892a39.991,39.991,0,0,1,1.1-14.714c.292-1.023,2.811-8.588,2.918-8.909a.523.523,0,0,1,.6-.349A261.466,261.466,0,0,1,142.3,73.384c-.458-1.483-.916-2.832-1.307-3.973l-.282-.83c-.538-1.6-.983-3.013-1.452-4.51-.719-2.29-1.464-4.666-2.637-7.971a82.513,82.513,0,0,1-4.58-29.913v-.116a3.571,3.571,0,0,1,.632-2.38,4.033,4.033,0,0,0,.937-2.317c.013-.323.034-.71.055-1.115.052-.945.107-2.013.078-2.481-.08-1.269-.718-1.269-.927-1.269a.525.525,0,0,1-.517-.437,30.429,30.429,0,0,1,0-3.178c.015-.613.031-1.164.031-1.485a2.176,2.176,0,0,0-1.939-1.937h-7.141a2.171,2.171,0,0,0-1.939,1.937c0,.321.015.874.031,1.489a27.206,27.206,0,0,1,0,3.172.525.525,0,0,1-.517.439c-.21,0-.849,0-.929,1.269-.029.464.027,1.527.078,2.462.021.412.042.805.055,1.134a4.04,4.04,0,0,0,.931,2.323,3.621,3.621,0,0,1,.632,2.384v.113a82.469,82.469,0,0,1-4.58,29.913c-1.174,3.3-1.918,5.672-2.637,7.962-.469,1.5-.914,2.918-1.454,4.519l-.282.83c-1.46,4.279-3.9,11.439-3.483,17.718.363,5.433.719,17.05.933,23.991.055,1.754.1,3.178.13,4.078.038,1.113.076,2.011.111,2.794a64.7,64.7,0,0,1,.04,6.489,39.449,39.449,0,0,0,.275,7.1.525.525,0,0,1-.521.6h-4.779a.525.525,0,0,1-.525-.525c0-.723.031-72.308-.011-75.383A10.62,10.62,0,0,0,96.52,45.941a.527.527,0,0,1-.412-.513V22.052c0-1.744.082-2.063.674-2.609a4.415,4.415,0,0,0,.357-.359c.357-.406.553-.63.525-2-.019-.954-.011-2.721,0-4.008v-1.1c0-.164.011-.324.023-.479a1.311,1.311,0,0,0-.021-.561c-.013-.013-.147-.137-.786-.137H84.707c-.639,0-.773.124-.786.137a1.311,1.311,0,0,0-.021.561c.011.155.023.315.023.479v1.1c0,1.292.015,3.053,0,4.008-.029,1.368.168,1.592.523,2a4.184,4.184,0,0,0,.353.357c.592.546.674.863.674,2.609V45.42a.527.527,0,0,1-.412.513,10.624,10.624,0,0,0-8.288,10.332c0,.723-.015,4.179-.019,9.288a100.509,100.509,0,0,1,25.964-.9.527.527,0,0,1,.479.523V137.7a.525.525,0,0,1-.433.517,77.1,77.1,0,0,1-11.966.777c-2.519,0-15.077-.113-15.077-2.349,0-.6-.029-48.069-.013-69.837-1.271.233-2.542.492-3.8.781a46.812,46.812,0,0,1,1.2,9.924v58.665C73.1,138.92,58,139,56.279,139a74.791,74.791,0,0,1-13.624-1.025.527.527,0,0,1-.418-.513V78.627a.525.525,0,0,1,.265-.456A106.7,106.7,0,0,1,70.652,66.8a175.956,175.956,0,0,0-5.317-17.349c-3.76-10.853-4.321-18.7-4.321-22.42V16.754a.525.525,0,0,1,.521-.532c.139,0,1.426-.1,1.426-2.208,0-1.057.019-1.908.036-2.613a22.373,22.373,0,0,0-.032-2.672,1.938,1.938,0,0,0-2.08-1.611H51.667a1.936,1.936,0,0,0-2.078,1.609,21.967,21.967,0,0,0-.034,2.672c.017.712.036,1.555.036,2.613,0,2.193,1.365,2.21,1.427,2.21a.525.525,0,0,1,.523.525V27.025c0,3.716-.561,11.567-4.321,22.42C43.543,60.054,40.5,69.484,40.5,77.5v54.159a.525.525,0,0,1-.525.525H.525a.525.525,0,0,1,0-1.05H39.457V77.507c0-8.183,3.069-17.7,6.777-28.4S50.5,30.674,50.5,27.025V17.191c-.727-.208-1.952-.893-1.952-3.17,0-1.048-.019-1.884-.036-2.59a22.934,22.934,0,0,1,.04-2.8A2.968,2.968,0,0,1,51.672,6.08h9.206A2.971,2.971,0,0,1,64,8.636a22.935,22.935,0,0,1,.038,2.8c-.017.706-.036,1.542-.036,2.59,0,2.277-1.225,2.962-1.95,3.17v9.842c0,3.649.553,11.368,4.263,22.079a175.13,175.13,0,0,1,5.344,17.454q2.01-.458,4.032-.824c0-5.214.01-8.752.021-9.485a11.68,11.68,0,0,1,8.7-11.244V22.052c0-1.527-.052-1.576-.336-1.84a5.437,5.437,0,0,1-.429-.433,3.3,3.3,0,0,1-.784-2.714c.019-.939.01-2.7,0-3.985V11.972c0-.139-.011-.273-.021-.4a1.661,1.661,0,0,1,.3-1.351A1.994,1.994,0,0,1,84.7,9.744H96.86a2.008,2.008,0,0,1,1.555.473,1.659,1.659,0,0,1,.3,1.351c0,.13-.019.263-.019.4V13.08c0,1.286-.015,3.053,0,3.985a3.284,3.284,0,0,1-.784,2.714,5.438,5.438,0,0,1-.429.433c-.286.265-.338.311-.338,1.84v22.96a11.673,11.673,0,0,1,8.7,11.244c.04,2.947.013,68.31.01,74.877h3.691a41.806,41.806,0,0,1-.206-6.679,63.5,63.5,0,0,0-.042-6.408c-.034-.786-.073-1.687-.111-2.8-.031-.9-.074-2.326-.128-4.082-.214-6.933-.573-18.538-.933-23.954-.433-6.489,2.052-13.773,3.536-18.13l.282-.826c.536-1.59.979-3,1.448-4.5.721-2.3,1.468-4.679,2.649-8a81.46,81.46,0,0,0,4.517-29.529v-.115a2.744,2.744,0,0,0-.382-1.737A5.138,5.138,0,0,1,119,21.414c-.011-.324-.032-.714-.055-1.12-.053-1.011-.109-2.057-.076-2.584a2.151,2.151,0,0,1,1.479-2.193c.011-.616-.019-1.767-.04-2.592-.017-.626-.032-1.191-.032-1.517a3.2,3.2,0,0,1,2.989-2.987h7.147a3.2,3.2,0,0,1,2.989,2.987c0,.326-.015.887-.031,1.511-.023.826-.053,1.979-.042,2.6A2.147,2.147,0,0,1,134.8,17.71c.032.529-.023,1.582-.078,2.6-.021.4-.042.782-.053,1.1a5.126,5.126,0,0,1-1.179,2.958,2.7,2.7,0,0,0-.382,1.735v.116a81.3,81.3,0,0,0,4.506,29.525c1.181,3.324,1.928,5.706,2.651,8.015.468,1.492.91,2.9,1.447,4.489l.281.826c.45,1.324.994,2.918,1.527,4.679q1.84.561,3.666,1.126V49.365a9.277,9.277,0,0,1,7.136-9.029V8.138a1.751,1.751,0,0,1-1.412-1.76c0-.782-.034-2.174-.061-3.275-.017-.731-.031-1.336-.031-1.555,0-.763.628-1.548,2.029-1.548h9.328c1.4,0,2.029.777,2.029,1.548,0,.221-.013.824-.031,1.555-.027,1.1-.061,2.492-.061,3.275a1.75,1.75,0,0,1-1.412,1.76v32.2a9.279,9.279,0,0,1,7.138,9.029v81.768h1.83c.191-3.695,1.389-26.718,1.389-29.332,0-3.181.824-6.355,1.779-10.031.206-.79.418-1.6.63-2.452.677-2.716,2.9-10.046,4.851-16.514,1.487-4.916,2.889-9.559,3.321-11.2.221-.838.479-1.718.75-2.645a38.274,38.274,0,0,0,2.023-10.576c0-1.355,0-3.4.013-5.746.017-5.847.04-13.855-.013-17.557-.011-.853-.137-1-.443-1.145a3.653,3.653,0,0,1-1.7-3.069v-.191c.036-1.115.073-2.168.109-2.645a2.33,2.33,0,0,1,2.365-1.945h9.573a2.339,2.339,0,0,1,2.345,1.928c.036.479.073,1.527.109,2.647v.191a3.654,3.654,0,0,1-1.7,3.071c-.305.155-.431.3-.443,1.145-.053,3.71-.031,11.718-.013,17.557,0,2.349.013,4.389.013,5.746a38.485,38.485,0,0,0,2.023,10.576c.271.924.529,1.807.75,2.645.431,1.637,1.834,6.281,3.321,11.2,1.382,4.567,2.891,9.563,3.9,13.061q3.51-.267,6.933-.819V57.413A15.41,15.41,0,0,1,222.2,44.745l.074-.05c2.975-2,4.008-2.863,4.084-6.275.05-2.258.258-19.7.275-21.054a.521.521,0,0,0-.439-.355c-1.166-.088-1.261-1.8-1.246-2.529l.288-7.01A1.055,1.055,0,0,1,226.3,6.5c3.261-.172,9.615-.074,12.18,0a1.145,1.145,0,0,1,1.109,1.029l.237,7.992A1.468,1.468,0,0,1,238.78,16.9c-.078.019-.166.036-.256.053a1.283,1.283,0,0,0-.336.088c.04.191.313,19.048.365,21.384.076,3.412,1.111,4.277,4.088,6.277l.065.042a15.424,15.424,0,0,1,6.651,12.674v73.72h34.987a.525.525,0,1,1,0,1.05H248.831a.525.525,0,0,1-.525-.525V57.421a14.36,14.36,0,0,0-6.191-11.808l-.059-.04c-3.013-2.023-4.466-3.172-4.553-7.126-.052-2.34-.323-21.2-.326-21.388-.071-.91.821-1.076,1.145-1.145.067-.011.13-.023.191-.038a.437.437,0,0,0,.26-.345l-.219-7.926c-.013-.055-.063-.057-.094-.059-2.552-.073-8.863-.17-12.094,0a.227.227,0,0,0-.084.017l-.275,6.95a2.423,2.423,0,0,0,.286,1.456,1.567,1.567,0,0,1,1.382,1.206.588.588,0,0,1,.013.13c0,.191-.223,18.8-.275,21.145-.088,3.954-1.54,5.1-4.552,7.126l-.069.044a14.363,14.363,0,0,0-6.187,11.792V84.871A88.741,88.741,0,0,0,245.3,74.32l.744-.42a.525.525,0,0,1,.782.458v60.6C246.826,137.61,238.961,139,231.192,139ZM216.608,85.944v49.01c0,1.221,5.681,3,14.584,3s14.584-1.775,14.584-3v-59.7a89.614,89.614,0,0,1-29.17,10.685Zm-38.972,50.531a71.209,71.209,0,0,0,15.886,1.475c12.479,0,19.008-1.929,19.008-2.964l-1.6-33.159a39.815,39.815,0,0,0-1.742-9.784c-.206-.8-.42-1.618-.634-2.471-.158-.634-.4-1.527-.708-2.6a104.936,104.936,0,0,1-25.288-1.6c-.424,1.557-1.773,6.489-2.139,7.658a58.488,58.488,0,0,0-1.6,11.958C178.651,109.522,177.766,133.04,177.636,136.475ZM148.229,76.3v60.1c.3.523,4.326,1.548,11.275,1.548a50.147,50.147,0,0,0,8.359-.618V82.074c-6.468-1.718-13.019-3.735-19.357-5.689Zm-33.64,60.892a77.007,77.007,0,0,0,11.75.763h.971c8.588,0,14.1-.943,14.628-1.6a34.546,34.546,0,0,0,1.336-11.867,64.653,64.653,0,0,1,.042-6.489c.032-.782.071-1.681.111-2.794.031-.889.073-2.29.126-4.008.214-6.958.573-18.6.935-24.046a37.825,37.825,0,0,0-1.815-12.538,269.012,269.012,0,0,0-26.245-6.882c-.553,1.668-2.511,7.565-2.76,8.428A39.6,39.6,0,0,0,112.6,90.476c.813,7.311,1.015,26.527,1.015,29.008,0,.861,0,1.567.021,2.191a30.675,30.675,0,0,1-.17,4.58l-.015.136a16.529,16.529,0,0,0,0,5.775C113.614,133,114.347,136.149,114.589,137.191Zm-37.823-.645c.716.6,5.853,1.4,14.031,1.4a79.813,79.813,0,0,0,11.349-.689v-71.6a99.23,99.23,0,0,0-25.393.964C76.74,87.833,76.764,134.007,76.766,136.546Zm-33.483.479a77.573,77.573,0,0,0,12.993.922c9.336,0,15.2-1.073,15.775-1.826V77.514a46.181,46.181,0,0,0-1.174-9.685A105.566,105.566,0,0,0,43.283,78.936Z" fill="#1d1d1b"/>
  <text id="MARITTIMA" transform="translate(1.434 216.418)" fill="#1d1d1b" font-size="76" font-family="LeHavreRoundedThin, Le Havre Rounded"><tspan x="0" y="0">MARITTIMA</tspan></text>
</svg>
