<svg xmlns="http://www.w3.org/2000/svg" width="33.419" height="33.419" viewBox="0 0 33.419 33.419">
  <path id="Path_6" data-name="Path 6" d="M30.918,14.165a16.71,16.71,0,1,0,16.71,16.709A16.71,16.71,0,0,0,30.918,14.165Zm7.284,23.4c-.013.068-.024.134-.034.2-.062.375-.177,1.074-.97,1.074a3.925,3.925,0,0,1-.661-.093,7.1,7.1,0,0,0-1.251-.158,1.089,1.089,0,0,0-.645.137c-.116.086-.237.188-.368.3a5.455,5.455,0,0,1-2.619,1.38,4.3,4.3,0,0,1-.726.084h-.01a4.324,4.324,0,0,1-.736-.085,5.46,5.46,0,0,1-2.618-1.38c-.131-.11-.252-.211-.368-.3a1.093,1.093,0,0,0-.646-.137,7.1,7.1,0,0,0-1.251.158,3.9,3.9,0,0,1-.661.093c-.793,0-.908-.7-.969-1.073-.01-.063-.021-.128-.034-.2-1.422-.191-2.715-.548-2.789-1.838a.578.578,0,0,1,.507-.606,4.822,4.822,0,0,0,3.919-3.333c.049-.336-.34-.419-.418-.432l-.04-.008c-1.36-.331-2.049-.812-2.049-1.43a1.046,1.046,0,0,1,1.149-1.028,1.785,1.785,0,0,1,.671.133,1.236,1.236,0,0,0,.463.07,2.762,2.762,0,0,0,.3-.017,15.772,15.772,0,0,1-.213-2.938c0-3.6,3.074-4.88,5.705-4.88H31a7.73,7.73,0,0,1,3.074.654A4.376,4.376,0,0,1,36.7,26.142a15.774,15.774,0,0,1-.213,2.938,2.843,2.843,0,0,0,.3.017,1.237,1.237,0,0,0,.463-.07,1.781,1.781,0,0,1,.671-.133,1.046,1.046,0,0,1,1.149,1.028c0,.619-.69,1.1-2.05,1.43l-.04.008c-.171.033-.462.134-.418.432a4.823,4.823,0,0,0,3.92,3.333.578.578,0,0,1,.507.606C40.917,37.021,39.623,37.379,38.2,37.569Z" transform="translate(-14.208 -14.165)"/>
</svg>
