<svg id="Group_81" data-name="Group 81" xmlns="http://www.w3.org/2000/svg" width="36.501" height="36.501" viewBox="0 0 36.501 36.501">
  <circle id="Ellipse_6" data-name="Ellipse 6" cx="17" cy="17" r="17" transform="translate(1.251 1.251)" fill="#fff"/>
  <path id="Path_6" data-name="Path 6" d="M32.459,14.165A18.251,18.251,0,1,0,50.71,32.415,18.251,18.251,0,0,0,32.459,14.165Zm7.956,25.563c-.014.074-.026.146-.037.215-.068.41-.194,1.173-1.059,1.173a4.288,4.288,0,0,1-.722-.1,7.753,7.753,0,0,0-1.367-.173,1.19,1.19,0,0,0-.7.15c-.127.094-.259.205-.4.325a5.958,5.958,0,0,1-2.86,1.507,4.691,4.691,0,0,1-.793.092h-.011a4.723,4.723,0,0,1-.8-.092A5.964,5.964,0,0,1,28.8,41.316c-.143-.12-.275-.231-.4-.325a1.193,1.193,0,0,0-.705-.15,7.753,7.753,0,0,0-1.367.173,4.261,4.261,0,0,1-.722.1c-.866,0-.992-.763-1.059-1.172-.011-.068-.023-.14-.037-.215-1.553-.208-2.966-.6-3.046-2.008a.631.631,0,0,1,.554-.662,5.267,5.267,0,0,0,4.281-3.64c.054-.367-.371-.458-.456-.472l-.044-.009c-1.485-.361-2.238-.887-2.238-1.562a1.143,1.143,0,0,1,1.255-1.123,1.949,1.949,0,0,1,.733.146,1.35,1.35,0,0,0,.505.076,3.015,3.015,0,0,0,.325-.019,17.226,17.226,0,0,1-.233-3.209c0-3.934,3.357-5.33,6.232-5.33h.175a8.443,8.443,0,0,1,3.357.715,4.779,4.779,0,0,1,2.875,4.615,17.229,17.229,0,0,1-.233,3.209,3.1,3.1,0,0,0,.325.019,1.351,1.351,0,0,0,.506-.076,1.945,1.945,0,0,1,.733-.146,1.143,1.143,0,0,1,1.255,1.123c0,.676-.753,1.2-2.239,1.562l-.044.009c-.187.036-.5.147-.456.472a5.268,5.268,0,0,0,4.281,3.64.631.631,0,0,1,.554.662C43.38,39.129,41.967,39.519,40.414,39.728Z" transform="translate(-14.208 -14.165)"/>
</svg>
