<svg id="Group_27" data-name="Group 27" xmlns="http://www.w3.org/2000/svg" width="33.419" height="33.419" viewBox="0 0 33.419 33.419">
  <circle id="Ellipse_4" data-name="Ellipse 4" cx="16.71" cy="16.71" r="16.71" transform="translate(0)"/>
  <path id="Path_7" data-name="Path 7" d="M25.232,15.3V12.219a4.322,4.322,0,0,1-3.257-1.134,4.831,4.831,0,0,1-1.156-3.061V7.8L17.9,7.73V20.251a2.714,2.714,0,1,1-1.759-3.045V14.221a5.775,5.775,0,0,0-.923-.076,5.623,5.623,0,1,0,5.623,5.623,5.732,5.732,0,0,0-.043-.689V14.113A7.859,7.859,0,0,0,25.232,15.3Z" transform="translate(-1.245 0.625)" fill="#fff"/>
</svg>
